<svg xmlns="http://www.w3.org/2000/svg" xmlns:xlink="http://www.w3.org/1999/xlink" contentStyleType="text/css" height="1068px" preserveAspectRatio="none" style="width:886px;height:1068px;background:#FFFFFF;" version="1.1" viewBox="0 0 886 1068" width="886px" zoomAndPan="magnify"><defs/><g><ellipse cx="439.97" cy="16" fill="#222222" rx="10" ry="10" style="stroke:#222222;stroke-width:1.0;"/><g id="load_ann_space"><rect fill="#F1F1F1" height="78.2031" rx="12.5" ry="12.5" style="stroke:#181818;stroke-width:0.5;" width="199.959" x="339.99" y="86"/><line style="stroke:#181818;stroke-width:0.5;" x1="339.99" x2="539.949" y1="112.2969" y2="112.2969"/><text fill="#000000" font-family="sans-serif" font-size="14" lengthAdjust="spacing" textLength="111.3164" x="384.3113" y="103.9951">load_ann_space</text><ellipse cx="350.49" cy="123.7656" fill="#000000" rx="2.5" ry="2.5" style="stroke:#000000;stroke-width:0.0;"/><text fill="#000000" font-family="sans-serif" font-size="12" lengthAdjust="spacing" textLength="146.584" x="356.99" y="128.4355">Process Input databases</text><ellipse cx="350.49" cy="137.7344" fill="#000000" rx="2.5" ry="2.5" style="stroke:#000000;stroke-width:0.0;"/><text fill="#000000" font-family="sans-serif" font-size="12" lengthAdjust="spacing" textLength="167.959" x="356.99" y="142.4043">Type-filtering and renaming</text><ellipse cx="350.49" cy="151.7031" fill="#000000" rx="2.5" ry="2.5" style="stroke:#000000;stroke-width:0.0;"/><text fill="#000000" font-family="sans-serif" font-size="12" lengthAdjust="spacing" textLength="159.627" x="356.99" y="156.373">Compute parent gene lists</text></g><g id="elem_GMN5"><path d="M88.64,104.97 L88.64,145.2356 A0,0 0 0 0 88.64,145.2356 L305.3065,145.2356 A0,0 0 0 0 305.3065,145.2356 L305.3065,129.1 L339.5,125.1 L305.3065,121.1 L305.3065,114.97 L295.3065,104.97 L88.64,104.97 A0,0 0 0 0 88.64,104.97 " fill="#FEFFDD" style="stroke:#181818;stroke-width:0.5;"/><path d="M295.3065,104.97 L295.3065,114.97 L305.3065,114.97 L295.3065,104.97 " fill="#FEFFDD" style="stroke:#181818;stroke-width:0.5;"/><text fill="#000000" font-family="monospace" font-size="13" font-weight="bold" lengthAdjust="spacing" textLength="195.6665" x="94.64" y="122.0369">Systems Biology databases</text><text fill="#000000" font-family="monospace" font-size="13" font-weight="bold" lengthAdjust="spacing" textLength="109.5732" x="94.64" y="137.1697">Filtered Types</text></g><path d="M19.5,224.2 L860.4409,224.2 A12.5,12.5 0 0 1 872.9409,236.7 L872.9409,250.4969 L7,250.4969 L7,236.7 A12.5,12.5 0 0 1 19.5,224.2 " fill="#F1F1F1" style="stroke:#F1F1F1;stroke-width:1.0;"/><rect fill="none" height="838.7769" rx="12.5" ry="12.5" style="stroke:#181818;stroke-width:0.5;" width="865.9409" x="7" y="224.2"/><line style="stroke:#181818;stroke-width:0.5;" x1="7" x2="872.9409" y1="250.4969" y2="250.4969"/><text fill="#000000" font-family="sans-serif" font-size="14" lengthAdjust="spacing" textLength="93.3037" x="393.3186" y="242.1951">NestedEnrich</text><!--cluster analyse--><g id="cluster_analyse"><rect fill="none" height="273.38" rx="12.5" ry="12.5" style="stroke:#181818;stroke-width:0.5;" width="788" x="19" y="779.5969"/><path d="M83.1133,779.5969 L83.1133,788.8938 L73.1133,798.8938 L19,798.8938 " fill="none" style="stroke:#181818;stroke-width:0.5;"/><text fill="#000000" font-family="sans-serif" font-size="14" lengthAdjust="spacing" textLength="54.1133" x="22" y="793.592">analyse</text></g><g id="NestedEnrich.analyse.plot_combined"><rect fill="#F1F1F1" height="78.2031" rx="12.5" ry="12.5" style="stroke:#181818;stroke-width:0.5;" width="207.1191" x="43.44" y="829.5869"/><line style="stroke:#181818;stroke-width:0.5;" x1="43.44" x2="250.5591" y1="855.8838" y2="855.8838"/><text fill="#000000" font-family="sans-serif" font-size="14" lengthAdjust="spacing" textLength="102.8809" x="95.5591" y="847.582">plot_combined</text><ellipse cx="53.94" cy="867.3525" fill="#000000" rx="2.5" ry="2.5" style="stroke:#000000;stroke-width:0.0;"/><text fill="#000000" font-family="sans-serif" font-size="12" lengthAdjust="spacing" textLength="175.1191" x="60.44" y="872.0224">Summary plots with p-values</text><ellipse cx="53.94" cy="881.3213" fill="#000000" rx="2.5" ry="2.5" style="stroke:#000000;stroke-width:0.0;"/><text fill="#000000" font-family="sans-serif" font-size="12" lengthAdjust="spacing" textLength="157.3008" x="60.44" y="885.9912">x-facet: Batch and Groups</text><ellipse cx="53.94" cy="895.29" fill="#000000" rx="2.5" ry="2.5" style="stroke:#000000;stroke-width:0.0;"/><text fill="#000000" font-family="sans-serif" font-size="12" lengthAdjust="spacing" textLength="98.3965" x="60.44" y="899.9599">y-facet: Clusters</text></g><g id="NestedEnrich.analyse.plot_hclust"><rect fill="#F1F1F1" height="64.2344" rx="12.5" ry="12.5" style="stroke:#181818;stroke-width:0.5;" width="195.1309" x="49.43" y="957.7569"/><line style="stroke:#181818;stroke-width:0.5;" x1="49.43" x2="244.5609" y1="984.0538" y2="984.0538"/><text fill="#000000" font-family="sans-serif" font-size="14" lengthAdjust="spacing" textLength="75.9473" x="109.0218" y="975.752">plot_hclust</text><ellipse cx="59.93" cy="995.5225" fill="#000000" rx="2.5" ry="2.5" style="stroke:#000000;stroke-width:0.0;"/><text fill="#000000" font-family="sans-serif" font-size="12" lengthAdjust="spacing" textLength="163.1309" x="66.43" y="1000.1924">Dendogram representation</text><ellipse cx="59.93" cy="1009.4913" fill="#000000" rx="2.5" ry="2.5" style="stroke:#000000;stroke-width:0.0;"/><text fill="#000000" font-family="sans-serif" font-size="12" lengthAdjust="spacing" textLength="102.9434" x="66.43" y="1014.1612">Cluster identified</text></g><g id="NestedEnrich.analyse.build_cluster_summary_table"><rect fill="#F1F1F1" height="64.2344" rx="12.5" ry="12.5" style="stroke:#181818;stroke-width:0.5;" width="238.3379" x="268.83" y="836.5669"/><line style="stroke:#181818;stroke-width:0.5;" x1="268.83" x2="507.1679" y1="862.8638" y2="862.8638"/><text fill="#000000" font-family="sans-serif" font-size="14" lengthAdjust="spacing" textLength="204.5586" x="285.7196" y="854.562">build_cluster_summary_table</text><text fill="#000000" font-family="sans-serif" font-size="12" lengthAdjust="spacing" textLength="134.3789" x="273.83" y="879.0024">List terms per clusters</text><text fill="#000000" font-family="sans-serif" font-size="12" lengthAdjust="spacing" textLength="218.3379" x="273.83" y="892.9712">P-values across Batches and Groups</text></g><g id="NestedEnrich.analyse.count_gene_per_cluster"><rect fill="#F1F1F1" height="78.2031" rx="12.5" ry="12.5" style="stroke:#181818;stroke-width:0.5;" width="212.1934" x="281.9" y="950.7769"/><line style="stroke:#181818;stroke-width:0.5;" x1="281.9" x2="494.0934" y1="977.0738" y2="977.0738"/><text fill="#000000" font-family="sans-serif" font-size="14" lengthAdjust="spacing" textLength="166.3525" x="304.8204" y="968.772">count_gene_per_cluster</text><ellipse cx="292.4" cy="988.5425" fill="#000000" rx="2.5" ry="2.5" style="stroke:#000000;stroke-width:0.0;"/><text fill="#000000" font-family="sans-serif" font-size="12" lengthAdjust="spacing" textLength="159.3867" x="298.9" y="993.2124">Count all gene occurences</text><ellipse cx="292.4" cy="1002.5113" fill="#000000" rx="2.5" ry="2.5" style="stroke:#000000;stroke-width:0.0;"/><text fill="#000000" font-family="sans-serif" font-size="12" lengthAdjust="spacing" textLength="180.1934" x="298.9" y="1007.1812">Per cluster and terms globally</text><ellipse cx="292.4" cy="1016.48" fill="#000000" rx="2.5" ry="2.5" style="stroke:#000000;stroke-width:0.0;"/><text fill="#000000" font-family="sans-serif" font-size="12" lengthAdjust="spacing" textLength="128.4492" x="298.9" y="1021.1499">Per term intra cluster</text></g><g id="NestedEnrich.analyse.write_xlsx"><rect fill="#F1F1F1" height="92.1719" rx="12.5" ry="12.5" style="stroke:#181818;stroke-width:0.5;" width="249.623" x="525.19" y="822.5969"/><line style="stroke:#181818;stroke-width:0.5;" x1="525.19" x2="774.813" y1="848.8938" y2="848.8938"/><text fill="#000000" font-family="sans-serif" font-size="14" lengthAdjust="spacing" textLength="69.9521" x="615.0254" y="840.592">write_xlsx</text><ellipse cx="535.69" cy="860.3625" fill="#000000" rx="2.5" ry="2.5" style="stroke:#000000;stroke-width:0.0;"/><text fill="#000000" font-family="sans-serif" font-size="12" lengthAdjust="spacing" textLength="167.373" x="542.19" y="865.0324">writes all enrichment tables</text><ellipse cx="535.69" cy="874.3313" fill="#000000" rx="2.5" ry="2.5" style="stroke:#000000;stroke-width:0.0;"/><text fill="#000000" font-family="sans-serif" font-size="12" lengthAdjust="spacing" textLength="153.0645" x="542.19" y="879.0012">Translates to Gene Name</text><ellipse cx="535.69" cy="888.3" fill="#000000" rx="2.5" ry="2.5" style="stroke:#000000;stroke-width:0.0;"/><text fill="#000000" font-family="sans-serif" font-size="12" lengthAdjust="spacing" textLength="217.623" x="542.19" y="892.9699">Writes build_cluster_summary_table</text><ellipse cx="535.69" cy="902.2688" fill="#000000" rx="2.5" ry="2.5" style="stroke:#000000;stroke-width:0.0;"/><text fill="#000000" font-family="sans-serif" font-size="12" lengthAdjust="spacing" textLength="184.875" x="542.19" y="906.9387">Writes count_gene_per_cluster</text></g><g id="NestedEnrich.new"><rect fill="#F1F1F1" height="64.2344" rx="12.5" ry="12.5" style="stroke:#181818;stroke-width:0.5;" width="171.8809" x="692.06" y="262.4969"/><line style="stroke:#181818;stroke-width:0.5;" x1="692.06" x2="863.9409" y1="288.7938" y2="288.7938"/><text fill="#000000" font-family="sans-serif" font-size="14" lengthAdjust="spacing" textLength="28.9365" x="763.5322" y="280.492">new</text><ellipse cx="702.56" cy="300.2625" fill="#000000" rx="2.5" ry="2.5" style="stroke:#000000;stroke-width:0.0;"/><text fill="#000000" font-family="sans-serif" font-size="12" lengthAdjust="spacing" textLength="84.8555" x="709.06" y="304.9324">Initiate Object</text><ellipse cx="702.56" cy="314.2313" fill="#000000" rx="2.5" ry="2.5" style="stroke:#000000;stroke-width:0.0;"/><text fill="#000000" font-family="sans-serif" font-size="12" lengthAdjust="spacing" textLength="139.8809" x="709.06" y="318.9012">Computes enrichments</text></g><g id="elem_GMN11"><path d="M457.67,274.4769 L457.67,314.7425 A0,0 0 0 0 457.67,314.7425 L674.3365,314.7425 A0,0 0 0 0 674.3365,314.7425 L674.3365,298.6069 L691.87,294.6069 L674.3365,290.6069 L674.3365,284.4769 L664.3365,274.4769 L457.67,274.4769 A0,0 0 0 0 457.67,274.4769 " fill="#FEFFDD" style="stroke:#181818;stroke-width:0.5;"/><path d="M664.3365,274.4769 L664.3365,284.4769 L674.3365,284.4769 L664.3365,274.4769 " fill="#FEFFDD" style="stroke:#181818;stroke-width:0.5;"/><text fill="#000000" font-family="monospace" font-size="13" font-weight="bold" lengthAdjust="spacing" textLength="133.0532" x="463.67" y="291.5438">Nested data frame</text><text fill="#000000" font-family="monospace" font-size="13" font-weight="bold" lengthAdjust="spacing" textLength="195.6665" x="463.67" y="306.6766">Multiple input gene lists</text></g><g id="NestedEnrich.filter_and_set_significant_results"><rect fill="#F1F1F1" height="78.2031" rx="12.5" ry="12.5" style="stroke:#181818;stroke-width:0.5;" width="247.8008" x="577.1" y="362.7269"/><line style="stroke:#181818;stroke-width:0.5;" x1="577.1" x2="824.9008" y1="389.0238" y2="389.0238"/><text fill="#000000" font-family="sans-serif" font-size="14" lengthAdjust="spacing" textLength="227.8008" x="587.1" y="380.722">filter_and_set_significant_results</text><ellipse cx="587.6" cy="400.4925" fill="#000000" rx="2.5" ry="2.5" style="stroke:#000000;stroke-width:0.0;"/><text fill="#000000" font-family="sans-serif" font-size="12" lengthAdjust="spacing" textLength="165.082" x="594.1" y="405.1624">Select the significant terms</text><ellipse cx="587.6" cy="414.4613" fill="#000000" rx="2.5" ry="2.5" style="stroke:#000000;stroke-width:0.0;"/><text fill="#000000" font-family="sans-serif" font-size="12" lengthAdjust="spacing" textLength="132.9492" x="594.1" y="419.1312">Affect further analysis</text><ellipse cx="587.6" cy="428.43" fill="#000000" rx="2.5" ry="2.5" style="stroke:#000000;stroke-width:0.0;"/><text fill="#000000" font-family="sans-serif" font-size="12" lengthAdjust="spacing" textLength="122.5723" x="594.1" y="433.0999">Automatic after new</text></g><g id="NestedEnrich.build_and_set_i_matrix"><rect fill="#F1F1F1" height="50.2656" rx="12.5" ry="12.5" style="stroke:#181818;stroke-width:0.5;" width="179.6875" x="408.16" y="476.9269"/><line style="stroke:#181818;stroke-width:0.5;" x1="408.16" x2="587.8475" y1="503.2238" y2="503.2238"/><text fill="#000000" font-family="sans-serif" font-size="14" lengthAdjust="spacing" textLength="159.6875" x="418.16" y="494.922">build_and_set_i_matrix</text><ellipse cx="418.66" cy="514.6925" fill="#000000" rx="2.5" ry="2.5" style="stroke:#000000;stroke-width:0.0;"/><text fill="#000000" font-family="sans-serif" font-size="12" lengthAdjust="spacing" textLength="61.541" x="425.16" y="519.3624">Automatic</text></g><g id="NestedEnrich.build_and_set_p_matrix"><rect fill="#F1F1F1" height="50.2656" rx="12.5" ry="12.5" style="stroke:#181818;stroke-width:0.5;" width="184.6846" x="605.66" y="476.9269"/><line style="stroke:#181818;stroke-width:0.5;" x1="605.66" x2="790.3446" y1="503.2238" y2="503.2238"/><text fill="#000000" font-family="sans-serif" font-size="14" lengthAdjust="spacing" textLength="164.6846" x="615.66" y="494.922">build_and_set_p_matrix</text><ellipse cx="616.16" cy="514.6925" fill="#000000" rx="2.5" ry="2.5" style="stroke:#000000;stroke-width:0.0;"/><text fill="#000000" font-family="sans-serif" font-size="12" lengthAdjust="spacing" textLength="61.541" x="622.66" y="519.3624">Automatic</text></g><g id="NestedEnrich.build_and_set_hclust"><rect fill="#F1F1F1" height="78.2031" rx="12.5" ry="12.5" style="stroke:#181818;stroke-width:0.5;" width="199.4844" x="567.26" y="563.1969"/><line style="stroke:#181818;stroke-width:0.5;" x1="567.26" x2="766.7444" y1="589.4938" y2="589.4938"/><text fill="#000000" font-family="sans-serif" font-size="14" lengthAdjust="spacing" textLength="145.2773" x="594.3635" y="581.192">build_and_set_hclust</text><ellipse cx="577.76" cy="600.9625" fill="#000000" rx="2.5" ry="2.5" style="stroke:#000000;stroke-width:0.0;"/><text fill="#000000" font-family="sans-serif" font-size="12" lengthAdjust="spacing" textLength="167.4844" x="584.26" y="605.6324">Build hierarchical clustering</text><ellipse cx="577.76" cy="614.9313" fill="#000000" rx="2.5" ry="2.5" style="stroke:#000000;stroke-width:0.0;"/><text fill="#000000" font-family="sans-serif" font-size="12" lengthAdjust="spacing" textLength="135.8555" x="584.26" y="619.6012">Use matrices (options)</text><ellipse cx="577.76" cy="628.9" fill="#000000" rx="2.5" ry="2.5" style="stroke:#000000;stroke-width:0.0;"/><text fill="#000000" font-family="sans-serif" font-size="12" lengthAdjust="spacing" textLength="61.541" x="584.26" y="633.5699">Automatic</text></g><g id="NestedEnrich.cut_hclust_and_set_clusters"><rect fill="#F1F1F1" height="78.2031" rx="12.5" ry="12.5" style="stroke:#181818;stroke-width:0.5;" width="214.8174" x="537.59" y="677.3969"/><line style="stroke:#181818;stroke-width:0.5;" x1="537.59" x2="752.4074" y1="703.6938" y2="703.6938"/><text fill="#000000" font-family="sans-serif" font-size="14" lengthAdjust="spacing" textLength="194.8174" x="547.59" y="695.392">cut_hclust_and_set_clusters</text><ellipse cx="548.09" cy="715.1625" fill="#000000" rx="2.5" ry="2.5" style="stroke:#000000;stroke-width:0.0;"/><text fill="#000000" font-family="sans-serif" font-size="12" lengthAdjust="spacing" textLength="144.2813" x="554.59" y="719.8324">Cut clusters for analysis</text><ellipse cx="548.09" cy="729.1313" fill="#000000" rx="2.5" ry="2.5" style="stroke:#000000;stroke-width:0.0;"/><text fill="#000000" font-family="sans-serif" font-size="12" lengthAdjust="spacing" textLength="170.9531" x="554.59" y="733.8012">Using hierarchical clustering</text><ellipse cx="548.09" cy="743.1" fill="#000000" rx="2.5" ry="2.5" style="stroke:#000000;stroke-width:0.0;"/><text fill="#000000" font-family="sans-serif" font-size="12" lengthAdjust="spacing" textLength="61.541" x="554.59" y="747.7699">Automatic</text></g><!--link new to filter_and_set_significant_results--><g id="link_new_filter_and_set_significant_results"><path d="M754.9,327.1769 C746.75,338.3169 741.0331,346.1147 732.5231,357.7447 " fill="none" id="new-to-filter_and_set_significant_results" style="stroke:#181818;stroke-width:1.0;"/><polygon fill="#181818" points="728.98,362.5869,737.5228,357.6858,731.9326,358.5518,731.0666,352.9616,728.98,362.5869" style="stroke:#181818;stroke-width:1.0;"/></g><!--link filter_and_set_significant_results to build_and_set_i_matrix--><g id="link_filter_and_set_significant_results_build_and_set_i_matrix"><path d="M621.35,441.3669 C596.91,453.1969 576.101,463.2637 554.151,473.8837 " fill="none" id="filter_and_set_significant_results-to-build_and_set_i_matrix" style="stroke:#181818;stroke-width:1.0;"/><polygon fill="#181818" points="548.75,476.4969,558.5937,476.1778,553.2509,474.3192,555.1095,468.9764,548.75,476.4969" style="stroke:#181818;stroke-width:1.0;"/></g><!--link filter_and_set_significant_results to build_and_set_p_matrix--><g id="link_filter_and_set_significant_results_build_and_set_p_matrix"><path d="M699.82,441.3669 C699.46,453.1969 699.2507,459.8796 698.9307,470.4996 " fill="none" id="filter_and_set_significant_results-to-build_and_set_p_matrix" style="stroke:#181818;stroke-width:1.0;"/><polygon fill="#181818" points="698.75,476.4969,703.0192,467.6214,698.9006,471.4991,695.0229,467.3805,698.75,476.4969" style="stroke:#181818;stroke-width:1.0;"/></g><!--link build_and_set_i_matrix to build_and_set_hclust--><g id="link_build_and_set_i_matrix_build_and_set_hclust"><path d="M540.21,527.5969 C558.49,538.2269 575.1433,547.9006 595.5033,559.7406 " fill="none" id="build_and_set_i_matrix-to-build_and_set_hclust" style="stroke:#181818;stroke-width:1.0;"/><polygon fill="#181818" points="600.69,562.7569,594.9207,554.7747,596.3677,560.2433,590.8991,561.6903,600.69,562.7569" style="stroke:#181818;stroke-width:1.0;"/></g><!--link build_and_set_p_matrix to build_and_set_hclust--><g id="link_build_and_set_p_matrix_build_and_set_hclust"><path d="M690.26,527.5969 C686.89,538.2769 684.6547,545.3347 680.9047,557.2247 " fill="none" id="build_and_set_p_matrix-to-build_and_set_hclust" style="stroke:#181818;stroke-width:1.0;"/><polygon fill="#181818" points="679.1,562.9469,685.6218,555.5668,680.6039,558.1784,677.9923,553.1605,679.1,562.9469" style="stroke:#181818;stroke-width:1.0;"/></g><!--link build_and_set_hclust to cut_hclust_and_set_clusters--><g id="link_build_and_set_hclust_cut_hclust_and_set_clusters"><path d="M659.49,641.5969 C657.25,653.0269 655.9429,659.6587 653.7029,671.0987 " fill="none" id="build_and_set_hclust-to-cut_hclust_and_set_clusters" style="stroke:#181818;stroke-width:1.0;"/><polygon fill="#181818" points="652.55,676.9869,658.2049,668.9232,653.5108,672.0801,650.3539,667.386,652.55,676.9869" style="stroke:#181818;stroke-width:1.0;"/></g><!--link plot_combined to plot_hclust--><!--link build_cluster_summary_table to count_gene_per_cluster--><!--link new to analyse--><g id="link_new_analyse"><path d="M810.1,326.9669 C819.17,337.5069 828.16,349.8769 834,362.7269 C859.76,419.4069 856,438.8069 856,501.0669 C856,501.0669 856,501.0669 856,603.2969 C856,671.2769 857.43,689.3969 842,755.5969 C836.04,781.1769 825.53,808.7294 816.3925,830.1169 C814.1081,835.4638 811.9095,840.4253 809.8893,844.8744 C808.8791,847.099 810.4469,843.7565 809.5375,845.7089 " fill="none" id="new-to-analyse" style="stroke:#181818;stroke-width:1.0;"/><polygon fill="#181818" points="807.0042,851.1478,814.4302,844.6783,809.1153,846.6154,807.1783,841.3005,807.0042,851.1478" style="stroke:#181818;stroke-width:1.0;"/></g><!--link filter_and_set_significant_results to analyse--><g id="link_filter_and_set_significant_results_analyse"><path d="M769.5,441.3369 C781.41,451.3069 792.16,463.1769 799,476.9269 C837.38,554.0669 837.68,650.8394 828.2363,728.7806 C823.5144,767.7513 816.3566,802.0141 810.3048,826.7611 C809.5484,829.8545 808.8092,832.7992 808.0942,835.5858 C807.7367,836.9791 808.908,832.5293 808.5635,833.8424 " fill="none" id="filter_and_set_significant_results-to-analyse" style="stroke:#181818;stroke-width:1.0;"/><polygon fill="#181818" points="807.0408,839.646,813.1939,831.9558,808.3097,834.8097,805.4558,829.9255,807.0408,839.646" style="stroke:#181818;stroke-width:1.0;"/></g><!--link build_and_set_hclust to analyse--><g id="link_build_and_set_hclust_analyse"><path d="M726.9,641.5269 C739.58,651.8869 751.87,664.0069 761,677.3969 C772.95,694.9369 781.32,715.3681 787.1483,736.2053 C790.0624,746.6239 792.3411,757.144 794.1142,767.4549 C794.5575,770.0326 794.9691,772.5973 795.3512,775.144 C795.5423,776.4173 794.896,771.7439 795.0725,773.0077 " fill="none" id="build_and_set_hclust-to-analyse" style="stroke:#181818;stroke-width:1.0;"/><polygon fill="#181818" points="795.9024,778.95,798.619,769.4832,795.2108,773.9981,790.696,770.5898,795.9024,778.95" style="stroke:#181818;stroke-width:1.0;"/></g><!--link cut_hclust_and_set_clusters to analyse--><g id="link_cut_hclust_and_set_clusters_analyse"><path d="M752.9,751.4869 C772,757.7169 786.18,762.5969 787,763.5969 C790.6288,768.0319 793.5462,772.9514 795.8726,778.1691 C796.018,778.4952 793.7966,773.308 793.9374,773.6364 " fill="none" id="cut_hclust_and_set_clusters-to-analyse" style="stroke:#181818;stroke-width:1.0;"/><polygon fill="#181818" points="796.3019,779.1508,796.4314,769.3028,794.3315,774.5555,789.0788,772.4555,796.3019,779.1508" style="stroke:#181818;stroke-width:1.0;"/></g><!--link *start* to load_ann_space--><g id="link_*start*_load_ann_space"><path d="M439.97,26.13 C439.97,39.28 439.97,58.34 439.97,79.82 " fill="none" id="*start*-to-load_ann_space" style="stroke:#181818;stroke-width:1.0;"/><polygon fill="#181818" points="439.97,85.82,443.97,76.82,439.97,80.82,435.97,76.82,439.97,85.82" style="stroke:#181818;stroke-width:1.0;"/></g><!--link load_ann_space to NestedEnrich--><g id="link_load_ann_space_NestedEnrich"><path d="M439.97,164.5 C439.97,180.51 439.97,194.8 439.97,217.93 " fill="none" id="load_ann_space-to-NestedEnrich" style="stroke:#181818;stroke-width:1.0;"/><polygon fill="#181818" points="439.97,223.93,443.97,214.93,439.97,218.93,435.97,214.93,439.97,223.93" style="stroke:#181818;stroke-width:1.0;"/></g><!--SRC=[dLN1Rjim3BtdAuYSjW3vWHu6BDrM5DYw06snGr4OYap76cJ9aEIbnj1_7qKvSTBPJhQZfFV8HqfyUbeymtBv0RGLUIQCoNmj9CvEbrUmWBMp4hs7MrCt0N8Hn4Puz0F8XxR6PQ5qGAVC5eJ9mQ4HLLmCmAzjHH4HQa6e05iq25hvu6V6qhR68inWiPZFxriViFAmKbRRRTjhcCyNYmJvmbanPmrf7obz3FGcCnTzXnGn_soSakNC1q7fZhVWzmp0u2wgl3Kgg0Zullc9ClG7dNmFo9oAQl3njDSEB2q5Pj5GE55XKfqElpKwg5eZAEvktuCET2Y2qxBsr60gACyyXiohhL65aiA4pA6dU575UL0iuHurbGIXH3X2036houDyB8eOf6WSnN5qwqAtNlq3lmcs4a5940N1OvqNSRaPcqRf_81I6GLoweNummSd-VutIpsMfHx9Cgnb878fTUF3QDpB6MaxwbZ5VIWLEk5aIQLfu3CUqGdUeqVWh3JxyCxMGLdZtqyGnWjE61Olc_toSDgfYUzbufG7ZWPaluR2dZorCzH77prel0jdw7rjySt46Uvo8pi5GAqjCMorKOP6VVbKgZn7yqmLyqbtIoSedh-cgeHh6UHXfq89zVANq0tPwr_WbsL1zaMzNeb05XNTzSRPfXw0jdlezRwvHp8Yu1FvYjrI8MJGDRrqyYuHR_WjhkE3ece2JGRcN6wwtwv3cKzLP6JAP6J7nKlRq2H5Kyjg0dQ4sGJz2hwI-oK70k8SBdoQjEww1a8wItyLjoWk-oODQqb6JYSWj4xsQwLiw4EYTp_1MVVIE4aIlDLsGt7QCyG89iCFJknZS5TtJWNCNhHd0-6LPrdz1mDShn-0FpXXl1QH4YpSn4Bkw9qE87-am1Fz72UDN2Z0wz47rOt6vVRQ4qQDeuTCZEe9ylKF]--></g><script xmlns=""/></svg>